<svg xmlns="http://www.w3.org/2000/svg" viewBox="0 0 64 64">
  <rect width="64" height="64" rx="10" fill="#243b36"/>
  <path fill="#fffaf0" d="M32 10a22 22 0 0 0-7 42c1.1.2 1.5-.5 1.5-1v-4c-6.2 1.4-7.5-2.6-7.5-2.6-1-2.5-2.5-3.2-2.5-3.2-2-1.4.2-1.4.2-1.4 2.2.2 3.4 2.3 3.4 2.3 2 3.3 5.1 2.4 6.4 1.8.2-1.4.8-2.4 1.4-3-5-.6-10.3-2.5-10.3-11a8.7 8.7 0 0 1 2.3-6c-.2-.6-1-2.9.2-5.9 0 0 1.9-.6 6.2 2.3a21.5 21.5 0 0 1 11.3 0c4.3-2.9 6.2-2.3 6.2-2.3 1.2 3 .4 5.3.2 5.9a8.7 8.7 0 0 1 2.3 6c0 8.5-5.3 10.4-10.3 11 .8.7 1.5 2 1.5 4.1V51c0 .6.4 1.3 1.5 1A22 22 0 0 0 32 10Z"/>
</svg>
